<?xml version="1.0" encoding="UTF-8" standalone="no"?>
<!DOCTYPE svg PUBLIC "-//W3C//DTD SVG 1.1//EN"
 "http://www.w3.org/Graphics/SVG/1.1/DTD/svg11.dtd">
<!-- Generated by graphviz version 2.38.0 (20140413.2041)
 -->
<!-- Title: controllers_diagram Pages: 1 -->
<svg width="888pt" height="965pt"
 viewBox="0.00 0.00 887.81 965.00" xmlns="http://www.w3.org/2000/svg" xmlns:xlink="http://www.w3.org/1999/xlink">
<g id="graph0" class="graph" transform="scale(1 1) rotate(0) translate(400.279 529.5)">
<title>controllers_diagram</title>
<polygon fill="none" stroke="none" points="-400.279,435.5 -400.279,-529.5 487.531,-529.5 487.531,435.5 -400.279,435.5"/>
<!-- _diagram_info -->
<g id="node1" class="node"><title>_diagram_info</title>
<text text-anchor="start" x="-279.688" y="228.9" font-family="Times,serif" font-size="13.00">Controllers diagram</text>
<text text-anchor="start" x="-279.688" y="241.9" font-family="Times,serif" font-size="13.00">Date: Mar 18 2016 &#45; 13:11</text>
<text text-anchor="start" x="-279.688" y="254.9" font-family="Times,serif" font-size="13.00">Migration version: 20160314153159</text>
<text text-anchor="start" x="-279.688" y="267.9" font-family="Times,serif" font-size="13.00">Generated by RailRoady 1.4.2</text>
<text text-anchor="start" x="-279.688" y="280.9" font-family="Times,serif" font-size="13.00">http://railroady.prestonlee.com</text>
</g>
<!-- AnswerController -->
<g id="node2" class="node"><title>AnswerController</title>
<path fill="none" stroke="black" d="M-41.5449,323C-41.5449,323 51.5449,323 51.5449,323 57.5449,323 63.5449,317 63.5449,311 63.5449,311 63.5449,189 63.5449,189 63.5449,183 57.5449,177 51.5449,177 51.5449,177 -41.5449,177 -41.5449,177 -47.5449,177 -53.5449,183 -53.5449,189 -53.5449,189 -53.5449,311 -53.5449,311 -53.5449,317 -47.5449,323 -41.5449,323"/>
<text text-anchor="middle" x="5" y="192.2" font-family="Times,serif" font-size="14.00">AnswerController</text>
<polyline fill="none" stroke="black" points="-53.5449,199 63.5449,199 "/>
<text text-anchor="start" x="-45.5449" y="214.2" font-family="Times,serif" font-size="14.00">create</text>
<text text-anchor="start" x="-45.5449" y="228.2" font-family="Times,serif" font-size="14.00">destroy</text>
<text text-anchor="start" x="-45.5449" y="242.2" font-family="Times,serif" font-size="14.00">make_correct</text>
<polyline fill="none" stroke="black" points="-53.5449,249 63.5449,249 "/>
<polyline fill="none" stroke="black" points="-53.5449,273 63.5449,273 "/>
<text text-anchor="start" x="-45.5449" y="288.2" font-family="Times,serif" font-size="14.00">_layout</text>
<text text-anchor="start" x="-45.5449" y="302.2" font-family="Times,serif" font-size="14.00">answer_params</text>
<text text-anchor="start" x="-45.5449" y="316.2" font-family="Times,serif" font-size="14.00">update_answers</text>
</g>
<!-- Api::ApiController -->
<g id="node3" class="node"><title>Api::ApiController</title>
<path fill="none" stroke="black" d="M-258.359,-37C-258.359,-37 -125.641,-37 -125.641,-37 -119.641,-37 -113.641,-43 -113.641,-49 -113.641,-49 -113.641,-171 -113.641,-171 -113.641,-177 -119.641,-183 -125.641,-183 -125.641,-183 -258.359,-183 -258.359,-183 -264.359,-183 -270.359,-177 -270.359,-171 -270.359,-171 -270.359,-49 -270.359,-49 -270.359,-43 -264.359,-37 -258.359,-37"/>
<text text-anchor="middle" x="-192" y="-167.8" font-family="Times,serif" font-size="14.00">Api::ApiController</text>
<polyline fill="none" stroke="black" points="-270.359,-161 -113.641,-161 "/>
<text text-anchor="start" x="-262.359" y="-145.8" font-family="Times,serif" font-size="14.00">single_tour</text>
<polyline fill="none" stroke="black" points="-270.359,-139 -113.641,-139 "/>
<polyline fill="none" stroke="black" points="-270.359,-115 -113.641,-115 "/>
<text text-anchor="start" x="-262.359" y="-99.8" font-family="Times,serif" font-size="14.00">_layout</text>
<text text-anchor="start" x="-262.359" y="-85.8" font-family="Times,serif" font-size="14.00">populate_data_audiences</text>
<text text-anchor="start" x="-262.359" y="-71.8" font-family="Times,serif" font-size="14.00">populate_data_reponse</text>
<text text-anchor="start" x="-262.359" y="-57.8" font-family="Times,serif" font-size="14.00">populate_point_reponse</text>
<text text-anchor="start" x="-262.359" y="-43.8" font-family="Times,serif" font-size="14.00">populate_tour_reponse</text>
</g>
<!-- ApplicationController -->
<g id="node4" class="node"><title>ApplicationController</title>
<path fill="none" stroke="black" d="M-59.8208,143C-59.8208,143 55.8208,143 55.8208,143 61.8208,143 67.8208,137 67.8208,131 67.8208,131 67.8208,-117 67.8208,-117 67.8208,-123 61.8208,-129 55.8208,-129 55.8208,-129 -59.8208,-129 -59.8208,-129 -65.8208,-129 -71.8208,-123 -71.8208,-117 -71.8208,-117 -71.8208,131 -71.8208,131 -71.8208,137 -65.8208,143 -59.8208,143"/>
<text text-anchor="middle" x="-2" y="-113.8" font-family="Times,serif" font-size="14.00">ApplicationController</text>
<polyline fill="none" stroke="black" points="-71.8208,-107 67.8208,-107 "/>
<text text-anchor="start" x="-63.8208" y="-91.8" font-family="Times,serif" font-size="14.00">analayse_video</text>
<text text-anchor="start" x="-63.8208" y="-77.8" font-family="Times,serif" font-size="14.00">analyse_upload</text>
<text text-anchor="start" x="-63.8208" y="-63.8" font-family="Times,serif" font-size="14.00">answers</text>
<text text-anchor="start" x="-63.8208" y="-49.8" font-family="Times,serif" font-size="14.00">api_authenticate!</text>
<text text-anchor="start" x="-63.8208" y="-35.8" font-family="Times,serif" font-size="14.00">api_response</text>
<text text-anchor="start" x="-63.8208" y="-21.8" font-family="Times,serif" font-size="14.00">authenticate_user!</text>
<text text-anchor="start" x="-63.8208" y="-7.8" font-family="Times,serif" font-size="14.00">compress_video</text>
<text text-anchor="start" x="-63.8208" y="6.2" font-family="Times,serif" font-size="14.00">current_user</text>
<text text-anchor="start" x="-63.8208" y="20.2" font-family="Times,serif" font-size="14.00">image?</text>
<text text-anchor="start" x="-63.8208" y="34.2" font-family="Times,serif" font-size="14.00">quiz_data</text>
<text text-anchor="start" x="-63.8208" y="48.2" font-family="Times,serif" font-size="14.00">quiz_questions</text>
<text text-anchor="start" x="-63.8208" y="62.2" font-family="Times,serif" font-size="14.00">redirect_error_page</text>
<text text-anchor="start" x="-63.8208" y="76.2" font-family="Times,serif" font-size="14.00">sendgrid</text>
<text text-anchor="start" x="-63.8208" y="90.2" font-family="Times,serif" font-size="14.00">upload_to_s3</text>
<polyline fill="none" stroke="black" points="-71.8208,97 67.8208,97 "/>
<polyline fill="none" stroke="black" points="-71.8208,121 67.8208,121 "/>
<text text-anchor="start" x="-63.8208" y="136.2" font-family="Times,serif" font-size="14.00">_layout</text>
</g>
<!-- AudiencesController -->
<g id="node5" class="node"><title>AudiencesController</title>
<path fill="none" stroke="black" d="M335.683,323C335.683,323 444.317,323 444.317,323 450.317,323 456.317,317 456.317,311 456.317,311 456.317,203 456.317,203 456.317,197 450.317,191 444.317,191 444.317,191 335.683,191 335.683,191 329.683,191 323.683,197 323.683,203 323.683,203 323.683,311 323.683,311 323.683,317 329.683,323 335.683,323"/>
<text text-anchor="middle" x="390" y="206.2" font-family="Times,serif" font-size="14.00">AudiencesController</text>
<polyline fill="none" stroke="black" points="323.683,213 456.317,213 "/>
<text text-anchor="start" x="331.683" y="228.2" font-family="Times,serif" font-size="14.00">create</text>
<text text-anchor="start" x="331.683" y="242.2" font-family="Times,serif" font-size="14.00">destroy</text>
<text text-anchor="start" x="331.683" y="256.2" font-family="Times,serif" font-size="14.00">index</text>
<polyline fill="none" stroke="black" points="323.683,263 456.317,263 "/>
<polyline fill="none" stroke="black" points="323.683,287 456.317,287 "/>
<text text-anchor="start" x="331.683" y="302.2" font-family="Times,serif" font-size="14.00">_layout</text>
<text text-anchor="start" x="331.683" y="316.2" font-family="Times,serif" font-size="14.00">audience_params</text>
</g>
<!-- DataAudiencesController -->
<g id="node6" class="node"><title>DataAudiencesController</title>
<path fill="none" stroke="black" d="M336.469,161C336.469,161 471.531,161 471.531,161 477.531,161 483.531,155 483.531,149 483.531,149 483.531,55 483.531,55 483.531,49 477.531,43 471.531,43 471.531,43 336.469,43 336.469,43 330.469,43 324.469,49 324.469,55 324.469,55 324.469,149 324.469,149 324.469,155 330.469,161 336.469,161"/>
<text text-anchor="middle" x="404" y="58.2" font-family="Times,serif" font-size="14.00">DataAudiencesController</text>
<polyline fill="none" stroke="black" points="324.469,65 483.531,65 "/>
<text text-anchor="start" x="332.469" y="80.2" font-family="Times,serif" font-size="14.00">create</text>
<text text-anchor="start" x="332.469" y="94.2" font-family="Times,serif" font-size="14.00">destroy</text>
<polyline fill="none" stroke="black" points="324.469,101 483.531,101 "/>
<polyline fill="none" stroke="black" points="324.469,125 483.531,125 "/>
<text text-anchor="start" x="332.469" y="140.2" font-family="Times,serif" font-size="14.00">_layout</text>
<text text-anchor="start" x="332.469" y="154.2" font-family="Times,serif" font-size="14.00">data_audience_params</text>
</g>
<!-- DataController -->
<g id="node7" class="node"><title>DataController</title>
<path fill="none" stroke="black" d="M-383.986,-181C-383.986,-181 -308.014,-181 -308.014,-181 -302.014,-181 -296.014,-187 -296.014,-193 -296.014,-193 -296.014,-329 -296.014,-329 -296.014,-335 -302.014,-341 -308.014,-341 -308.014,-341 -383.986,-341 -383.986,-341 -389.986,-341 -395.986,-335 -395.986,-329 -395.986,-329 -395.986,-193 -395.986,-193 -395.986,-187 -389.986,-181 -383.986,-181"/>
<text text-anchor="middle" x="-346" y="-325.8" font-family="Times,serif" font-size="14.00">DataController</text>
<polyline fill="none" stroke="black" points="-395.986,-319 -296.014,-319 "/>
<text text-anchor="start" x="-387.986" y="-303.8" font-family="Times,serif" font-size="14.00">create</text>
<text text-anchor="start" x="-387.986" y="-289.8" font-family="Times,serif" font-size="14.00">destroy</text>
<text text-anchor="start" x="-387.986" y="-275.8" font-family="Times,serif" font-size="14.00">index</text>
<text text-anchor="start" x="-387.986" y="-261.8" font-family="Times,serif" font-size="14.00">show</text>
<text text-anchor="start" x="-387.986" y="-247.8" font-family="Times,serif" font-size="14.00">update</text>
<polyline fill="none" stroke="black" points="-395.986,-241 -296.014,-241 "/>
<polyline fill="none" stroke="black" points="-395.986,-217 -296.014,-217 "/>
<text text-anchor="start" x="-387.986" y="-201.8" font-family="Times,serif" font-size="14.00">_layout</text>
<text text-anchor="start" x="-387.986" y="-187.8" font-family="Times,serif" font-size="14.00">datum_params</text>
</g>
<!-- FeedbackController -->
<g id="node8" class="node"><title>FeedbackController</title>
<path fill="none" stroke="black" d="M102.407,431C102.407,431 205.593,431 205.593,431 211.593,431 217.593,425 217.593,419 217.593,419 217.593,325 217.593,325 217.593,319 211.593,313 205.593,313 205.593,313 102.407,313 102.407,313 96.4067,313 90.4067,319 90.4067,325 90.4067,325 90.4067,419 90.4067,419 90.4067,425 96.4067,431 102.407,431"/>
<text text-anchor="middle" x="154" y="328.2" font-family="Times,serif" font-size="14.00">FeedbackController</text>
<polyline fill="none" stroke="black" points="90.4067,335 217.593,335 "/>
<text text-anchor="start" x="98.4067" y="350.2" font-family="Times,serif" font-size="14.00">create</text>
<text text-anchor="start" x="98.4067" y="364.2" font-family="Times,serif" font-size="14.00">destroy</text>
<polyline fill="none" stroke="black" points="90.4067,371 217.593,371 "/>
<polyline fill="none" stroke="black" points="90.4067,395 217.593,395 "/>
<text text-anchor="start" x="98.4067" y="410.2" font-family="Times,serif" font-size="14.00">_layout</text>
<text text-anchor="start" x="98.4067" y="424.2" font-family="Times,serif" font-size="14.00">feedback_params</text>
</g>
<!-- PasswordResetController -->
<g id="node9" class="node"><title>PasswordResetController</title>
<path fill="none" stroke="black" d="M119.579,269C119.579,269 276.421,269 276.421,269 282.421,269 288.421,263 288.421,257 288.421,257 288.421,149 288.421,149 288.421,143 282.421,137 276.421,137 276.421,137 119.579,137 119.579,137 113.579,137 107.579,143 107.579,149 107.579,149 107.579,257 107.579,257 107.579,263 113.579,269 119.579,269"/>
<text text-anchor="middle" x="198" y="152.2" font-family="Times,serif" font-size="14.00">PasswordResetController</text>
<polyline fill="none" stroke="black" points="107.579,159 288.421,159 "/>
<text text-anchor="start" x="115.579" y="174.2" font-family="Times,serif" font-size="14.00">activate</text>
<text text-anchor="start" x="115.579" y="188.2" font-family="Times,serif" font-size="14.00">create</text>
<text text-anchor="start" x="115.579" y="202.2" font-family="Times,serif" font-size="14.00">send_reset_email</text>
<polyline fill="none" stroke="black" points="107.579,209 288.421,209 "/>
<polyline fill="none" stroke="black" points="107.579,233 288.421,233 "/>
<text text-anchor="start" x="115.579" y="248.2" font-family="Times,serif" font-size="14.00">_layout</text>
<text text-anchor="start" x="115.579" y="262.2" font-family="Times,serif" font-size="14.00">temporary_password_params</text>
</g>
<!-- PointsController -->
<g id="node10" class="node"><title>PointsController</title>
<path fill="none" stroke="black" d="M-384.279,161C-384.279,161 -299.721,161 -299.721,161 -293.721,161 -287.721,155 -287.721,149 -287.721,149 -287.721,13 -287.721,13 -287.721,7 -293.721,1 -299.721,1 -299.721,1 -384.279,1 -384.279,1 -390.279,1 -396.279,7 -396.279,13 -396.279,13 -396.279,149 -396.279,149 -396.279,155 -390.279,161 -384.279,161"/>
<text text-anchor="middle" x="-342" y="16.2" font-family="Times,serif" font-size="14.00">PointsController</text>
<polyline fill="none" stroke="black" points="-396.279,23 -287.721,23 "/>
<text text-anchor="start" x="-388.279" y="38.2" font-family="Times,serif" font-size="14.00">create</text>
<text text-anchor="start" x="-388.279" y="52.2" font-family="Times,serif" font-size="14.00">destroy</text>
<text text-anchor="start" x="-388.279" y="66.2" font-family="Times,serif" font-size="14.00">index</text>
<text text-anchor="start" x="-388.279" y="80.2" font-family="Times,serif" font-size="14.00">show</text>
<text text-anchor="start" x="-388.279" y="94.2" font-family="Times,serif" font-size="14.00">update</text>
<polyline fill="none" stroke="black" points="-396.279,101 -287.721,101 "/>
<polyline fill="none" stroke="black" points="-396.279,125 -287.721,125 "/>
<text text-anchor="start" x="-388.279" y="140.2" font-family="Times,serif" font-size="14.00">_layout</text>
<text text-anchor="start" x="-388.279" y="154.2" font-family="Times,serif" font-size="14.00">point_params</text>
</g>
<!-- PointsDataController -->
<g id="node11" class="node"><title>PointsDataController</title>
<path fill="none" stroke="black" d="M299.507,-91C299.507,-91 410.493,-91 410.493,-91 416.493,-91 422.493,-97 422.493,-103 422.493,-103 422.493,-253 422.493,-253 422.493,-259 416.493,-265 410.493,-265 410.493,-265 299.507,-265 299.507,-265 293.507,-265 287.507,-259 287.507,-253 287.507,-253 287.507,-103 287.507,-103 287.507,-97 293.507,-91 299.507,-91"/>
<text text-anchor="middle" x="355" y="-249.8" font-family="Times,serif" font-size="14.00">PointsDataController</text>
<polyline fill="none" stroke="black" points="287.507,-243 422.493,-243 "/>
<text text-anchor="start" x="295.507" y="-227.8" font-family="Times,serif" font-size="14.00">create</text>
<text text-anchor="start" x="295.507" y="-213.8" font-family="Times,serif" font-size="14.00">decrease_rank</text>
<text text-anchor="start" x="295.507" y="-199.8" font-family="Times,serif" font-size="14.00">destroy</text>
<text text-anchor="start" x="295.507" y="-185.8" font-family="Times,serif" font-size="14.00">increase_rank</text>
<polyline fill="none" stroke="black" points="287.507,-179 422.493,-179 "/>
<polyline fill="none" stroke="black" points="287.507,-155 422.493,-155 "/>
<text text-anchor="start" x="295.507" y="-139.8" font-family="Times,serif" font-size="14.00">_layout</text>
<text text-anchor="start" x="295.507" y="-125.8" font-family="Times,serif" font-size="14.00">max_rank</text>
<text text-anchor="start" x="295.507" y="-111.8" font-family="Times,serif" font-size="14.00">point_datum_params</text>
<text text-anchor="start" x="295.507" y="-97.8" font-family="Times,serif" font-size="14.00">update_rank</text>
</g>
<!-- PublicQuizController -->
<g id="node12" class="node"><title>PublicQuizController</title>
<path fill="none" stroke="black" d="M119.865,107C119.865,107 268.135,107 268.135,107 274.135,107 280.135,101 280.135,95 280.135,95 280.135,-41 280.135,-41 280.135,-47 274.135,-53 268.135,-53 268.135,-53 119.865,-53 119.865,-53 113.865,-53 107.865,-47 107.865,-41 107.865,-41 107.865,95 107.865,95 107.865,101 113.865,107 119.865,107"/>
<text text-anchor="middle" x="194" y="-37.8" font-family="Times,serif" font-size="14.00">PublicQuizController</text>
<polyline fill="none" stroke="black" points="107.865,-31 280.135,-31 "/>
<text text-anchor="start" x="115.865" y="-15.8" font-family="Times,serif" font-size="14.00">analayse_answer</text>
<text text-anchor="start" x="115.865" y="-1.8" font-family="Times,serif" font-size="14.00">attempt_quiz</text>
<text text-anchor="start" x="115.865" y="12.2" font-family="Times,serif" font-size="14.00">correct_answer</text>
<text text-anchor="start" x="115.865" y="26.2" font-family="Times,serif" font-size="14.00">increment_question_correct</text>
<text text-anchor="start" x="115.865" y="40.2" font-family="Times,serif" font-size="14.00">increment_question_wrong</text>
<text text-anchor="start" x="115.865" y="54.2" font-family="Times,serif" font-size="14.00">submit_question</text>
<polyline fill="none" stroke="black" points="107.865,61 280.135,61 "/>
<polyline fill="none" stroke="black" points="107.865,85 280.135,85 "/>
<text text-anchor="start" x="115.865" y="100.2" font-family="Times,serif" font-size="14.00">_layout</text>
</g>
<!-- QuestionController -->
<g id="node13" class="node"><title>QuestionController</title>
<path fill="none" stroke="black" d="M-366.048,-379C-366.048,-379 -265.952,-379 -265.952,-379 -259.952,-379 -253.952,-385 -253.952,-391 -253.952,-391 -253.952,-513 -253.952,-513 -253.952,-519 -259.952,-525 -265.952,-525 -265.952,-525 -366.048,-525 -366.048,-525 -372.048,-525 -378.048,-519 -378.048,-513 -378.048,-513 -378.048,-391 -378.048,-391 -378.048,-385 -372.048,-379 -366.048,-379"/>
<text text-anchor="middle" x="-316" y="-509.8" font-family="Times,serif" font-size="14.00">QuestionController</text>
<polyline fill="none" stroke="black" points="-378.048,-503 -253.952,-503 "/>
<text text-anchor="start" x="-370.048" y="-487.8" font-family="Times,serif" font-size="14.00">create</text>
<text text-anchor="start" x="-370.048" y="-473.8" font-family="Times,serif" font-size="14.00">destroy</text>
<text text-anchor="start" x="-370.048" y="-459.8" font-family="Times,serif" font-size="14.00">update</text>
<polyline fill="none" stroke="black" points="-378.048,-453 -253.952,-453 "/>
<polyline fill="none" stroke="black" points="-378.048,-429 -253.952,-429 "/>
<text text-anchor="start" x="-370.048" y="-413.8" font-family="Times,serif" font-size="14.00">_layout</text>
<text text-anchor="start" x="-370.048" y="-399.8" font-family="Times,serif" font-size="14.00">max_rank</text>
<text text-anchor="start" x="-370.048" y="-385.8" font-family="Times,serif" font-size="14.00">question_params</text>
</g>
<!-- QuizController -->
<g id="node14" class="node"><title>QuizController</title>
<path fill="none" stroke="black" d="M317.683,-307C317.683,-307 412.317,-307 412.317,-307 418.317,-307 424.317,-313 424.317,-319 424.317,-319 424.317,-483 424.317,-483 424.317,-489 418.317,-495 412.317,-495 412.317,-495 317.683,-495 317.683,-495 311.683,-495 305.683,-489 305.683,-483 305.683,-483 305.683,-319 305.683,-319 305.683,-313 311.683,-307 317.683,-307"/>
<text text-anchor="middle" x="365" y="-479.8" font-family="Times,serif" font-size="14.00">QuizController</text>
<polyline fill="none" stroke="black" points="305.683,-473 424.317,-473 "/>
<text text-anchor="start" x="313.683" y="-457.8" font-family="Times,serif" font-size="14.00">add_tour_quiz</text>
<text text-anchor="start" x="313.683" y="-443.8" font-family="Times,serif" font-size="14.00">create</text>
<text text-anchor="start" x="313.683" y="-429.8" font-family="Times,serif" font-size="14.00">destroy</text>
<text text-anchor="start" x="313.683" y="-415.8" font-family="Times,serif" font-size="14.00">index</text>
<text text-anchor="start" x="313.683" y="-401.8" font-family="Times,serif" font-size="14.00">remove_tour_quiz</text>
<text text-anchor="start" x="313.683" y="-387.8" font-family="Times,serif" font-size="14.00">show</text>
<text text-anchor="start" x="313.683" y="-373.8" font-family="Times,serif" font-size="14.00">update</text>
<polyline fill="none" stroke="black" points="305.683,-367 424.317,-367 "/>
<polyline fill="none" stroke="black" points="305.683,-343 424.317,-343 "/>
<text text-anchor="start" x="313.683" y="-327.8" font-family="Times,serif" font-size="14.00">_layout</text>
<text text-anchor="start" x="313.683" y="-313.8" font-family="Times,serif" font-size="14.00">quiz_params</text>
</g>
<!-- SessionsController -->
<g id="node15" class="node"><title>SessionsController</title>
<path fill="none" stroke="black" d="M120.017,-307C120.017,-307 251.983,-307 251.983,-307 257.983,-307 263.983,-313 263.983,-319 263.983,-319 263.983,-441 263.983,-441 263.983,-447 257.983,-453 251.983,-453 251.983,-453 120.017,-453 120.017,-453 114.017,-453 108.017,-447 108.017,-441 108.017,-441 108.017,-319 108.017,-319 108.017,-313 114.017,-307 120.017,-307"/>
<text text-anchor="middle" x="186" y="-437.8" font-family="Times,serif" font-size="14.00">SessionsController</text>
<polyline fill="none" stroke="black" points="108.017,-431 263.983,-431 "/>
<text text-anchor="start" x="116.017" y="-415.8" font-family="Times,serif" font-size="14.00">create</text>
<text text-anchor="start" x="116.017" y="-401.8" font-family="Times,serif" font-size="14.00">destroy</text>
<text text-anchor="start" x="116.017" y="-387.8" font-family="Times,serif" font-size="14.00">new</text>
<polyline fill="none" stroke="black" points="108.017,-381 263.983,-381 "/>
<polyline fill="none" stroke="black" points="108.017,-357 263.983,-357 "/>
<text text-anchor="start" x="116.017" y="-341.8" font-family="Times,serif" font-size="14.00">_layout</text>
<text text-anchor="start" x="116.017" y="-327.8" font-family="Times,serif" font-size="14.00">create_user_session</text>
<text text-anchor="start" x="116.017" y="-313.8" font-family="Times,serif" font-size="14.00">set_temporary_password</text>
</g>
<!-- TourSessionsController -->
<g id="node16" class="node"><title>TourSessionsController</title>
<path fill="none" stroke="black" d="M119.992,-91C119.992,-91 244.008,-91 244.008,-91 250.008,-91 256.008,-97 256.008,-103 256.008,-103 256.008,-253 256.008,-253 256.008,-259 250.008,-265 244.008,-265 244.008,-265 119.992,-265 119.992,-265 113.992,-265 107.992,-259 107.992,-253 107.992,-253 107.992,-103 107.992,-103 107.992,-97 113.992,-91 119.992,-91"/>
<text text-anchor="middle" x="182" y="-249.8" font-family="Times,serif" font-size="14.00">TourSessionsController</text>
<polyline fill="none" stroke="black" points="107.992,-243 256.008,-243 "/>
<text text-anchor="start" x="115.992" y="-227.8" font-family="Times,serif" font-size="14.00">create</text>
<text text-anchor="start" x="115.992" y="-213.8" font-family="Times,serif" font-size="14.00">destroy</text>
<text text-anchor="start" x="115.992" y="-199.8" font-family="Times,serif" font-size="14.00">send_email</text>
<text text-anchor="start" x="115.992" y="-185.8" font-family="Times,serif" font-size="14.00">update</text>
<polyline fill="none" stroke="black" points="107.992,-179 256.008,-179 "/>
<polyline fill="none" stroke="black" points="107.992,-155 256.008,-155 "/>
<text text-anchor="start" x="115.992" y="-139.8" font-family="Times,serif" font-size="14.00">_layout</text>
<text text-anchor="start" x="115.992" y="-125.8" font-family="Times,serif" font-size="14.00">generate_passphrase</text>
<text text-anchor="start" x="115.992" y="-111.8" font-family="Times,serif" font-size="14.00">send_invitation_email</text>
<text text-anchor="start" x="115.992" y="-97.8" font-family="Times,serif" font-size="14.00">tour_session_params</text>
</g>
<!-- ToursController -->
<g id="node17" class="node"><title>ToursController</title>
<path fill="none" stroke="black" d="M-23.6147,-163C-23.6147,-163 57.6147,-163 57.6147,-163 63.6147,-163 69.6147,-169 69.6147,-175 69.6147,-175 69.6147,-381 69.6147,-381 69.6147,-387 63.6147,-393 57.6147,-393 57.6147,-393 -23.6147,-393 -23.6147,-393 -29.6147,-393 -35.6147,-387 -35.6147,-381 -35.6147,-381 -35.6147,-175 -35.6147,-175 -35.6147,-169 -29.6147,-163 -23.6147,-163"/>
<text text-anchor="middle" x="17" y="-377.8" font-family="Times,serif" font-size="14.00">ToursController</text>
<polyline fill="none" stroke="black" points="-35.6147,-371 69.6147,-371 "/>
<text text-anchor="start" x="-27.6147" y="-355.8" font-family="Times,serif" font-size="14.00">create</text>
<text text-anchor="start" x="-27.6147" y="-341.8" font-family="Times,serif" font-size="14.00">destroy</text>
<text text-anchor="start" x="-27.6147" y="-327.8" font-family="Times,serif" font-size="14.00">index</text>
<text text-anchor="start" x="-27.6147" y="-313.8" font-family="Times,serif" font-size="14.00">pdf</text>
<text text-anchor="start" x="-27.6147" y="-299.8" font-family="Times,serif" font-size="14.00">quiz_data</text>
<text text-anchor="start" x="-27.6147" y="-285.8" font-family="Times,serif" font-size="14.00">show</text>
<text text-anchor="start" x="-27.6147" y="-271.8" font-family="Times,serif" font-size="14.00">tour_feedbacks</text>
<text text-anchor="start" x="-27.6147" y="-257.8" font-family="Times,serif" font-size="14.00">tour_points</text>
<text text-anchor="start" x="-27.6147" y="-243.8" font-family="Times,serif" font-size="14.00">tour_sessions</text>
<text text-anchor="start" x="-27.6147" y="-229.8" font-family="Times,serif" font-size="14.00">update</text>
<polyline fill="none" stroke="black" points="-35.6147,-223 69.6147,-223 "/>
<polyline fill="none" stroke="black" points="-35.6147,-199 69.6147,-199 "/>
<text text-anchor="start" x="-27.6147" y="-183.8" font-family="Times,serif" font-size="14.00">_layout</text>
<text text-anchor="start" x="-27.6147" y="-169.8" font-family="Times,serif" font-size="14.00">tour_params</text>
</g>
<!-- ToursPointsController -->
<g id="node18" class="node"><title>ToursPointsController</title>
<path fill="none" stroke="black" d="M-204.122,-217C-204.122,-217 -87.8784,-217 -87.8784,-217 -81.8784,-217 -75.8784,-223 -75.8784,-229 -75.8784,-229 -75.8784,-379 -75.8784,-379 -75.8784,-385 -81.8784,-391 -87.8784,-391 -87.8784,-391 -204.122,-391 -204.122,-391 -210.122,-391 -216.122,-385 -216.122,-379 -216.122,-379 -216.122,-229 -216.122,-229 -216.122,-223 -210.122,-217 -204.122,-217"/>
<text text-anchor="middle" x="-146" y="-375.8" font-family="Times,serif" font-size="14.00">ToursPointsController</text>
<polyline fill="none" stroke="black" points="-216.122,-369 -75.8784,-369 "/>
<text text-anchor="start" x="-208.122" y="-353.8" font-family="Times,serif" font-size="14.00">create</text>
<text text-anchor="start" x="-208.122" y="-339.8" font-family="Times,serif" font-size="14.00">decrease_rank</text>
<text text-anchor="start" x="-208.122" y="-325.8" font-family="Times,serif" font-size="14.00">destroy</text>
<text text-anchor="start" x="-208.122" y="-311.8" font-family="Times,serif" font-size="14.00">increase_rank</text>
<polyline fill="none" stroke="black" points="-216.122,-305 -75.8784,-305 "/>
<polyline fill="none" stroke="black" points="-216.122,-281 -75.8784,-281 "/>
<text text-anchor="start" x="-208.122" y="-265.8" font-family="Times,serif" font-size="14.00">_layout</text>
<text text-anchor="start" x="-208.122" y="-251.8" font-family="Times,serif" font-size="14.00">max_rank</text>
<text text-anchor="start" x="-208.122" y="-237.8" font-family="Times,serif" font-size="14.00">point_data_params</text>
<text text-anchor="start" x="-208.122" y="-223.8" font-family="Times,serif" font-size="14.00">update_rank</text>
</g>
<!-- UsersController -->
<g id="node19" class="node"><title>UsersController</title>
<path fill="none" stroke="black" d="M-239.979,179C-239.979,179 -122.021,179 -122.021,179 -116.021,179 -110.021,173 -110.021,167 -110.021,167 -110.021,17 -110.021,17 -110.021,11 -116.021,5 -122.021,5 -122.021,5 -239.979,5 -239.979,5 -245.979,5 -251.979,11 -251.979,17 -251.979,17 -251.979,167 -251.979,167 -251.979,173 -245.979,179 -239.979,179"/>
<text text-anchor="middle" x="-181" y="20.2" font-family="Times,serif" font-size="14.00">UsersController</text>
<polyline fill="none" stroke="black" points="-251.979,27 -110.021,27 "/>
<text text-anchor="start" x="-243.979" y="42.2" font-family="Times,serif" font-size="14.00">create</text>
<text text-anchor="start" x="-243.979" y="56.2" font-family="Times,serif" font-size="14.00">destroy</text>
<text text-anchor="start" x="-243.979" y="70.2" font-family="Times,serif" font-size="14.00">index</text>
<text text-anchor="start" x="-243.979" y="84.2" font-family="Times,serif" font-size="14.00">send_activation_email</text>
<text text-anchor="start" x="-243.979" y="98.2" font-family="Times,serif" font-size="14.00">show</text>
<text text-anchor="start" x="-243.979" y="112.2" font-family="Times,serif" font-size="14.00">update</text>
<polyline fill="none" stroke="black" points="-251.979,119 -110.021,119 "/>
<polyline fill="none" stroke="black" points="-251.979,143 -110.021,143 "/>
<text text-anchor="start" x="-243.979" y="158.2" font-family="Times,serif" font-size="14.00">_layout</text>
<text text-anchor="start" x="-243.979" y="172.2" font-family="Times,serif" font-size="14.00">user_params</text>
</g>
</g>
</svg>
