<?xml version="1.0" encoding="UTF-8" standalone="no"?>
<!DOCTYPE svg PUBLIC "-//W3C//DTD SVG 1.1//EN"
 "http://www.w3.org/Graphics/SVG/1.1/DTD/svg11.dtd">
<!-- Generated by graphviz version 2.38.0 (20140413.2041)
 -->
<!-- Title: models_diagram Pages: 1 -->
<svg width="510pt" height="459pt"
 viewBox="0.00 0.00 510.39 459.00" xmlns="http://www.w3.org/2000/svg" xmlns:xlink="http://www.w3.org/1999/xlink">
<g id="graph0" class="graph" transform="scale(1 1) rotate(0) translate(4 455)">
<title>models_diagram</title>
<polygon fill="none" stroke="none" points="-4,4 -4,-455 506.394,-455 506.394,4 -4,4"/>
<!-- _diagram_info -->
<g id="node1" class="node"><title>_diagram_info</title>
<text text-anchor="start" x="8" y="-436.6" font-family="Times,serif" font-size="13.00">Models diagram</text>
<text text-anchor="start" x="8" y="-423.6" font-family="Times,serif" font-size="13.00">Date: Mar 18 2016 &#45; 13:11</text>
<text text-anchor="start" x="8" y="-410.6" font-family="Times,serif" font-size="13.00">Migration version: 20160314153159</text>
<text text-anchor="start" x="8" y="-397.6" font-family="Times,serif" font-size="13.00">Generated by RailRoady 1.4.2</text>
<text text-anchor="start" x="8" y="-384.6" font-family="Times,serif" font-size="13.00">http://railroady.prestonlee.com</text>
</g>
<!-- Answer -->
<g id="node2" class="node"><title>Answer</title>
<ellipse fill="none" stroke="black" cx="240.688" cy="-18" rx="37.7266" ry="18"/>
<text text-anchor="middle" x="240.688" y="-13.8" font-family="Times,serif" font-size="14.00">Answer</text>
</g>
<!-- Audience -->
<g id="node3" class="node"><title>Audience</title>
<ellipse fill="none" stroke="black" cx="230.688" cy="-323" rx="43.9819" ry="18"/>
<text text-anchor="middle" x="230.688" y="-318.8" font-family="Times,serif" font-size="14.00">Audience</text>
</g>
<!-- DataAudience -->
<g id="node4" class="node"><title>DataAudience</title>
<ellipse fill="none" stroke="black" cx="124.688" cy="-237" rx="60.87" ry="18"/>
<text text-anchor="middle" x="124.688" y="-232.8" font-family="Times,serif" font-size="14.00">DataAudience</text>
</g>
<!-- Audience&#45;&gt;DataAudience -->
<g id="edge3" class="edge"><title>Audience&#45;&gt;DataAudience</title>
<path fill="none" stroke="#70e622" d="M204.77,-301.461C189.125,-289.063 169.174,-273.253 153.099,-260.515"/>
<ellipse fill="none" stroke="#70e622" cx="208.111" cy="-304.109" rx="4.00002" ry="4.00002"/>
<polygon fill="#70e622" stroke="#70e622" points="152.928,-260.379 147.885,-250.641 149.009,-257.273 145.09,-254.168 145.09,-254.168 145.09,-254.168 149.009,-257.273 142.295,-257.695 152.928,-260.379 152.928,-260.379"/>
</g>
<!-- Tour -->
<g id="node11" class="node"><title>Tour</title>
<ellipse fill="none" stroke="black" cx="302.688" cy="-237" rx="27" ry="18"/>
<text text-anchor="middle" x="302.688" y="-232.8" font-family="Times,serif" font-size="14.00">Tour</text>
</g>
<!-- Audience&#45;&gt;Tour -->
<g id="edge1" class="edge"><title>Audience&#45;&gt;Tour</title>
<path fill="none" stroke="#4f3fc0" d="M250.086,-299.369C260.327,-287.421 272.863,-272.795 283.128,-260.82"/>
<ellipse fill="none" stroke="#4f3fc0" cx="247.173" cy="-302.767" rx="4.00002" ry="4.00002"/>
<polygon fill="#4f3fc0" stroke="#4f3fc0" points="283.308,-260.61 293.232,-255.946 286.562,-256.814 289.816,-253.018 289.816,-253.018 289.816,-253.018 286.562,-256.814 286.399,-250.089 283.308,-260.61 283.308,-260.61"/>
</g>
<!-- Data -->
<g id="node16" class="node"><title>Data</title>
<ellipse fill="none" stroke="black" cx="230.688" cy="-237" rx="27" ry="18"/>
<text text-anchor="middle" x="230.688" y="-232.8" font-family="Times,serif" font-size="14.00">Data</text>
</g>
<!-- Audience&#45;&gt;Data -->
<g id="edge2" class="edge"><title>Audience&#45;&gt;Data</title>
<path fill="none" stroke="#79a772" d="M230.688,-294.33C230.688,-285.023 230.688,-274.648 230.688,-265.364"/>
<polygon fill="#79a772" stroke="#79a772" points="230.688,-294.595 226.188,-304.595 230.688,-299.595 230.688,-304.595 230.688,-304.595 230.688,-304.595 230.688,-299.595 235.188,-304.595 230.688,-294.595 230.688,-294.595"/>
<polygon fill="#79a772" stroke="#79a772" points="230.688,-265.095 235.188,-255.095 230.688,-260.095 230.688,-255.095 230.688,-255.095 230.688,-255.095 230.688,-260.095 226.188,-255.095 230.688,-265.095 230.688,-265.095"/>
<text text-anchor="middle" x="242.346" y="-275.8" font-family="Times,serif" font-size="14.00">data</text>
</g>
<!-- Datum -->
<g id="node5" class="node"><title>Datum</title>
<ellipse fill="none" stroke="black" cx="259.688" cy="-414.5" rx="34.3527" ry="18"/>
<text text-anchor="middle" x="259.688" y="-410.3" font-family="Times,serif" font-size="14.00">Datum</text>
</g>
<!-- Datum&#45;&gt;Audience -->
<g id="edge5" class="edge"><title>Datum&#45;&gt;Audience</title>
<path fill="none" stroke="#3735f7" d="M251.101,-386.999C247.415,-375.623 243.113,-362.348 239.412,-350.925"/>
<polygon fill="#3735f7" stroke="#3735f7" points="251.151,-387.153 249.952,-398.053 252.692,-391.909 254.233,-396.666 254.233,-396.666 254.233,-396.666 252.692,-391.909 258.514,-395.279 251.151,-387.153 251.151,-387.153"/>
<polygon fill="#3735f7" stroke="#3735f7" points="239.299,-350.576 240.497,-339.676 237.758,-345.82 236.217,-341.063 236.217,-341.063 236.217,-341.063 237.758,-345.82 231.936,-342.45 239.299,-350.576 239.299,-350.576"/>
</g>
<!-- Datum&#45;&gt;DataAudience -->
<g id="edge6" class="edge"><title>Datum&#45;&gt;DataAudience</title>
<path fill="none" stroke="#c048ab" d="M235.677,-393.968C214.871,-376.741 186.727,-352.623 177.688,-341 159.273,-317.322 144.324,-286.27 135.054,-264.475"/>
<ellipse fill="none" stroke="#c048ab" cx="238.783" cy="-396.527" rx="4.00002" ry="4.00002"/>
<polygon fill="#c048ab" stroke="#c048ab" points="135.028,-264.411 135.361,-253.451 133.116,-259.792 131.203,-255.172 131.203,-255.172 131.203,-255.172 133.116,-259.792 127.045,-256.893 135.028,-264.411 135.028,-264.411"/>
</g>
<!-- Point -->
<g id="node7" class="node"><title>Point</title>
<ellipse fill="none" stroke="black" cx="321.688" cy="-323" rx="28.5668" ry="18"/>
<text text-anchor="middle" x="321.688" y="-318.8" font-family="Times,serif" font-size="14.00">Point</text>
</g>
<!-- Datum&#45;&gt;Point -->
<g id="edge4" class="edge"><title>Datum&#45;&gt;Point</title>
<path fill="none" stroke="#68a49b" d="M276.758,-388.858C285.593,-376.104 296.335,-360.598 305.1,-347.946"/>
<polygon fill="#68a49b" stroke="#68a49b" points="276.754,-388.864 267.36,-394.522 273.907,-392.974 271.059,-397.084 271.059,-397.084 271.059,-397.084 273.907,-392.974 274.759,-399.647 276.754,-388.864 276.754,-388.864"/>
<polygon fill="#68a49b" stroke="#68a49b" points="305.109,-347.932 314.503,-342.274 307.957,-343.821 310.804,-339.711 310.804,-339.711 310.804,-339.711 307.957,-343.821 307.105,-337.149 305.109,-347.932 305.109,-347.932"/>
</g>
<!-- PointDatum -->
<g id="node8" class="node"><title>PointDatum</title>
<ellipse fill="none" stroke="black" cx="400.688" cy="-237" rx="52.7038" ry="18"/>
<text text-anchor="middle" x="400.688" y="-232.8" font-family="Times,serif" font-size="14.00">PointDatum</text>
</g>
<!-- Datum&#45;&gt;PointDatum -->
<g id="edge7" class="edge"><title>Datum&#45;&gt;PointDatum</title>
<path fill="none" stroke="#011ced" d="M283.352,-393.148C289.534,-388.058 296.268,-382.71 302.688,-378 327.04,-360.134 340.534,-364.352 359.688,-341 378.022,-318.647 388.956,-287.064 394.863,-264.778"/>
<ellipse fill="none" stroke="#011ced" cx="279.972" cy="-395.966" rx="4.00002" ry="4.00002"/>
<polygon fill="#011ced" stroke="#011ced" points="394.89,-264.669 401.667,-256.048 396.095,-259.816 397.3,-254.963 397.3,-254.963 397.3,-254.963 396.095,-259.816 392.932,-253.879 394.89,-264.669 394.89,-264.669"/>
</g>
<!-- Feedback -->
<g id="node6" class="node"><title>Feedback</title>
<ellipse fill="none" stroke="black" cx="151.688" cy="-164" rx="43.9819" ry="18"/>
<text text-anchor="middle" x="151.688" y="-159.8" font-family="Times,serif" font-size="14.00">Feedback</text>
</g>
<!-- Point&#45;&gt;PointDatum -->
<g id="edge8" class="edge"><title>Point&#45;&gt;PointDatum</title>
<path fill="none" stroke="#d01ac7" d="M341.352,-301.091C352.613,-289.117 366.779,-274.055 378.445,-261.651"/>
<ellipse fill="none" stroke="#d01ac7" cx="338.552" cy="-304.069" rx="4.00002" ry="4.00002"/>
<polygon fill="#d01ac7" stroke="#d01ac7" points="378.486,-261.607 388.615,-257.405 381.912,-257.964 385.337,-254.322 385.337,-254.322 385.337,-254.322 381.912,-257.964 382.059,-251.239 378.486,-261.607 378.486,-261.607"/>
</g>
<!-- Point&#45;&gt;Tour -->
<g id="edge9" class="edge"><title>Point&#45;&gt;Tour</title>
<path fill="none" stroke="#63cc21" d="M315.593,-295.055C313.407,-285.392 310.945,-274.504 308.761,-264.849"/>
<polygon fill="#63cc21" stroke="#63cc21" points="315.637,-295.248 313.454,-305.994 316.74,-300.125 317.843,-305.001 317.843,-305.001 317.843,-305.001 316.74,-300.125 322.232,-304.009 315.637,-295.248 315.637,-295.248"/>
<polygon fill="#63cc21" stroke="#63cc21" points="308.733,-264.727 310.916,-253.981 307.63,-259.85 306.527,-254.973 306.527,-254.973 306.527,-254.973 307.63,-259.85 302.138,-255.966 308.733,-264.727 308.733,-264.727"/>
</g>
<!-- Question -->
<g id="node9" class="node"><title>Question</title>
<ellipse fill="none" stroke="black" cx="240.688" cy="-91" rx="42.0784" ry="18"/>
<text text-anchor="middle" x="240.688" y="-86.8" font-family="Times,serif" font-size="14.00">Question</text>
</g>
<!-- Question&#45;&gt;Answer -->
<g id="edge10" class="edge"><title>Question&#45;&gt;Answer</title>
<path fill="none" stroke="#aa8342" d="M240.688,-64.791C240.688,-58.832 240.688,-52.4496 240.688,-46.3988"/>
<ellipse fill="none" stroke="#aa8342" cx="240.688" cy="-68.8129" rx="4" ry="4"/>
<polygon fill="#aa8342" stroke="#aa8342" points="240.688,-46.0288 245.188,-36.0288 240.688,-41.0288 240.688,-36.0288 240.688,-36.0288 240.688,-36.0288 240.688,-41.0288 236.188,-36.0289 240.688,-46.0288 240.688,-46.0288"/>
</g>
<!-- Quiz -->
<g id="node10" class="node"><title>Quiz</title>
<ellipse fill="none" stroke="black" cx="240.688" cy="-164" rx="27.0958" ry="18"/>
<text text-anchor="middle" x="240.688" y="-159.8" font-family="Times,serif" font-size="14.00">Quiz</text>
</g>
<!-- Quiz&#45;&gt;Question -->
<g id="edge11" class="edge"><title>Quiz&#45;&gt;Question</title>
<path fill="none" stroke="#a2d39f" d="M240.688,-137.791C240.688,-131.832 240.688,-125.45 240.688,-119.399"/>
<ellipse fill="none" stroke="#a2d39f" cx="240.688" cy="-141.813" rx="4" ry="4"/>
<polygon fill="#a2d39f" stroke="#a2d39f" points="240.688,-119.029 245.188,-109.029 240.688,-114.029 240.688,-109.029 240.688,-109.029 240.688,-109.029 240.688,-114.029 236.188,-109.029 240.688,-119.029 240.688,-119.029"/>
</g>
<!-- Tour&#45;&gt;Feedback -->
<g id="edge14" class="edge"><title>Tour&#45;&gt;Feedback</title>
<path fill="none" stroke="#7a3aea" d="M274.001,-222.447C271.528,-221.28 269.064,-220.119 266.688,-219 240.671,-206.749 211.327,-192.971 188.793,-182.398"/>
<ellipse fill="none" stroke="#7a3aea" cx="277.754" cy="-224.217" rx="4.00002" ry="4.00002"/>
<polygon fill="#7a3aea" stroke="#7a3aea" points="188.635,-182.324 181.493,-174.003 184.108,-180.201 179.581,-178.077 179.581,-178.077 179.581,-178.077 184.108,-180.201 177.67,-182.151 188.635,-182.324 188.635,-182.324"/>
</g>
<!-- Tour&#45;&gt;Quiz -->
<g id="edge15" class="edge"><title>Tour&#45;&gt;Quiz</title>
<path fill="none" stroke="#d9fd7a" d="M284.061,-214.67C276.216,-205.685 267.106,-195.253 259.265,-186.275"/>
<ellipse fill="none" stroke="#d9fd7a" cx="286.908" cy="-217.93" rx="4.00002" ry="4.00002"/>
<ellipse fill="#d9fd7a" stroke="#d9fd7a" cx="256.448" cy="-183.049" rx="4.00002" ry="4.00002"/>
</g>
<!-- TourPoint -->
<g id="node12" class="node"><title>TourPoint</title>
<ellipse fill="none" stroke="black" cx="331.688" cy="-164" rx="45.2114" ry="18"/>
<text text-anchor="middle" x="331.688" y="-159.8" font-family="Times,serif" font-size="14.00">TourPoint</text>
</g>
<!-- Tour&#45;&gt;TourPoint -->
<g id="edge12" class="edge"><title>Tour&#45;&gt;TourPoint</title>
<path fill="none" stroke="#e5f87d" d="M312.508,-211.958C315.221,-205.316 318.178,-198.075 320.94,-191.312"/>
<ellipse fill="none" stroke="#e5f87d" cx="310.926" cy="-215.83" rx="4.00001" ry="4.00001"/>
<polygon fill="#e5f87d" stroke="#e5f87d" points="321.015,-191.129 328.963,-183.573 322.906,-186.5 324.797,-181.871 324.797,-181.871 324.797,-181.871 322.906,-186.5 320.631,-180.169 321.015,-191.129 321.015,-191.129"/>
</g>
<!-- TourSession -->
<g id="node14" class="node"><title>TourSession</title>
<ellipse fill="none" stroke="black" cx="448.688" cy="-164" rx="53.9141" ry="18"/>
<text text-anchor="middle" x="448.688" y="-159.8" font-family="Times,serif" font-size="14.00">TourSession</text>
</g>
<!-- Tour&#45;&gt;TourSession -->
<g id="edge13" class="edge"><title>Tour&#45;&gt;TourSession</title>
<path fill="none" stroke="#1adf6f" d="M331.411,-222.032C353.949,-211.072 385.537,-195.71 410.252,-183.691"/>
<ellipse fill="none" stroke="#1adf6f" cx="327.515" cy="-223.927" rx="4.00002" ry="4.00002"/>
<polygon fill="#1adf6f" stroke="#1adf6f" points="410.362,-183.638 421.323,-183.311 414.859,-181.451 419.355,-179.265 419.355,-179.265 419.355,-179.265 414.859,-181.451 417.387,-175.218 410.362,-183.638 410.362,-183.638"/>
</g>
<!-- TourQuiz -->
<g id="node13" class="node"><title>TourQuiz</title>
<ellipse fill="none" stroke="black" cx="355.688" cy="-414.5" rx="43.7405" ry="18"/>
<text text-anchor="middle" x="355.688" y="-410.3" font-family="Times,serif" font-size="14.00">TourQuiz</text>
</g>
<!-- User -->
<g id="node15" class="node"><title>User</title>
<ellipse fill="none" stroke="black" cx="444.688" cy="-414.5" rx="27" ry="18"/>
<text text-anchor="middle" x="444.688" y="-410.3" font-family="Times,serif" font-size="14.00">User</text>
</g>
</g>
</svg>
