<?xml version="1.0" encoding="UTF-8" standalone="no"?>
<!DOCTYPE svg PUBLIC "-//W3C//DTD SVG 1.1//EN"
 "http://www.w3.org/Graphics/SVG/1.1/DTD/svg11.dtd">
<!-- Generated by graphviz version 2.38.0 (20140413.2041)
 -->
<!-- Title: models_diagram Pages: 1 -->
<svg width="1151pt" height="966pt"
 viewBox="0.00 0.00 1150.72 966.00" xmlns="http://www.w3.org/2000/svg" xmlns:xlink="http://www.w3.org/1999/xlink">
<g id="graph0" class="graph" transform="scale(1 1) rotate(0) translate(4 962)">
<title>models_diagram</title>
<polygon fill="none" stroke="none" points="-4,4 -4,-962 1146.72,-962 1146.72,4 -4,4"/>
<!-- _diagram_info -->
<g id="node1" class="node"><title>_diagram_info</title>
<text text-anchor="start" x="145.175" y="-915.6" font-family="Times,serif" font-size="13.00">Models diagram</text>
<text text-anchor="start" x="145.175" y="-902.6" font-family="Times,serif" font-size="13.00">Date: Mar 18 2016 &#45; 13:11</text>
<text text-anchor="start" x="145.175" y="-889.6" font-family="Times,serif" font-size="13.00">Migration version: 20160314153159</text>
<text text-anchor="start" x="145.175" y="-876.6" font-family="Times,serif" font-size="13.00">Generated by RailRoady 1.4.2</text>
<text text-anchor="start" x="145.175" y="-863.6" font-family="Times,serif" font-size="13.00">http://railroady.prestonlee.com</text>
</g>
<!-- Answer -->
<g id="node2" class="node"><title>Answer</title>
<path fill="none" stroke="black" d="M278,-0.5C278,-0.5 501.725,-0.5 501.725,-0.5 507.725,-0.5 513.725,-6.5 513.725,-12.5 513.725,-12.5 513.725,-102.5 513.725,-102.5 513.725,-108.5 507.725,-114.5 501.725,-114.5 501.725,-114.5 278,-114.5 278,-114.5 272,-114.5 266,-108.5 266,-102.5 266,-102.5 266,-12.5 266,-12.5 266,-6.5 272,-0.5 278,-0.5"/>
<text text-anchor="middle" x="389.862" y="-99.3" font-family="Times,serif" font-size="14.00">Answer</text>
<polyline fill="none" stroke="black" points="266,-92.5 513.725,-92.5 "/>
<text text-anchor="start" x="274" y="-77.3" font-family="Times,serif" font-size="14.00">id :integer</text>
<text text-anchor="start" x="274" y="-63.3" font-family="Times,serif" font-size="14.00">question_id :integer</text>
<text text-anchor="start" x="274" y="-49.3" font-family="Times,serif" font-size="14.00">value :text</text>
<text text-anchor="start" x="274" y="-35.3" font-family="Times,serif" font-size="14.00">is_correct :boolean</text>
<text text-anchor="start" x="274" y="-21.3" font-family="Times,serif" font-size="14.00">created_at :timestamp without time zone</text>
<text text-anchor="start" x="274" y="-7.3" font-family="Times,serif" font-size="14.00">updated_at :timestamp without time zone</text>
</g>
<!-- Audience -->
<g id="node3" class="node"><title>Audience</title>
<path fill="none" stroke="black" d="M302,-691.5C302,-691.5 525.725,-691.5 525.725,-691.5 531.725,-691.5 537.725,-697.5 537.725,-703.5 537.725,-703.5 537.725,-765.5 537.725,-765.5 537.725,-771.5 531.725,-777.5 525.725,-777.5 525.725,-777.5 302,-777.5 302,-777.5 296,-777.5 290,-771.5 290,-765.5 290,-765.5 290,-703.5 290,-703.5 290,-697.5 296,-691.5 302,-691.5"/>
<text text-anchor="middle" x="413.862" y="-762.3" font-family="Times,serif" font-size="14.00">Audience</text>
<polyline fill="none" stroke="black" points="290,-755.5 537.725,-755.5 "/>
<text text-anchor="start" x="298" y="-740.3" font-family="Times,serif" font-size="14.00">id :integer</text>
<text text-anchor="start" x="298" y="-726.3" font-family="Times,serif" font-size="14.00">name :character varying</text>
<text text-anchor="start" x="298" y="-712.3" font-family="Times,serif" font-size="14.00">created_at :timestamp without time zone</text>
<text text-anchor="start" x="298" y="-698.3" font-family="Times,serif" font-size="14.00">updated_at :timestamp without time zone</text>
</g>
<!-- DataAudience -->
<g id="node4" class="node"><title>DataAudience</title>
<path fill="none" stroke="black" d="M133,-519.5C133,-519.5 356.725,-519.5 356.725,-519.5 362.725,-519.5 368.725,-525.5 368.725,-531.5 368.725,-531.5 368.725,-607.5 368.725,-607.5 368.725,-613.5 362.725,-619.5 356.725,-619.5 356.725,-619.5 133,-619.5 133,-619.5 127,-619.5 121,-613.5 121,-607.5 121,-607.5 121,-531.5 121,-531.5 121,-525.5 127,-519.5 133,-519.5"/>
<text text-anchor="middle" x="244.862" y="-604.3" font-family="Times,serif" font-size="14.00">DataAudience</text>
<polyline fill="none" stroke="black" points="121,-597.5 368.725,-597.5 "/>
<text text-anchor="start" x="129" y="-582.3" font-family="Times,serif" font-size="14.00">id :integer</text>
<text text-anchor="start" x="129" y="-568.3" font-family="Times,serif" font-size="14.00">audience_id :integer</text>
<text text-anchor="start" x="129" y="-554.3" font-family="Times,serif" font-size="14.00">created_at :timestamp without time zone</text>
<text text-anchor="start" x="129" y="-540.3" font-family="Times,serif" font-size="14.00">updated_at :timestamp without time zone</text>
<text text-anchor="start" x="129" y="-526.3" font-family="Times,serif" font-size="14.00">datum_id :integer</text>
</g>
<!-- Audience&#45;&gt;DataAudience -->
<g id="edge3" class="edge"><title>Audience&#45;&gt;DataAudience</title>
<path fill="none" stroke="#a9e9d5" d="M363.944,-685.354C344.813,-666.902 322.825,-645.694 302.99,-626.564"/>
<ellipse fill="none" stroke="#a9e9d5" cx="367.022" cy="-688.322" rx="4.00002" ry="4.00002"/>
<polygon fill="#a9e9d5" stroke="#a9e9d5" points="302.988,-626.562 298.914,-616.381 299.389,-623.091 295.79,-619.62 295.79,-619.62 295.79,-619.62 299.389,-623.091 292.666,-622.858 302.988,-626.562 302.988,-626.562"/>
</g>
<!-- Tour -->
<g id="node11" class="node"><title>Tour</title>
<path fill="none" stroke="black" d="M471,-512.5C471,-512.5 694.725,-512.5 694.725,-512.5 700.725,-512.5 706.725,-518.5 706.725,-524.5 706.725,-524.5 706.725,-614.5 706.725,-614.5 706.725,-620.5 700.725,-626.5 694.725,-626.5 694.725,-626.5 471,-626.5 471,-626.5 465,-626.5 459,-620.5 459,-614.5 459,-614.5 459,-524.5 459,-524.5 459,-518.5 465,-512.5 471,-512.5"/>
<text text-anchor="middle" x="582.862" y="-611.3" font-family="Times,serif" font-size="14.00">Tour</text>
<polyline fill="none" stroke="black" points="459,-604.5 706.725,-604.5 "/>
<text text-anchor="start" x="467" y="-589.3" font-family="Times,serif" font-size="14.00">id :integer</text>
<text text-anchor="start" x="467" y="-575.3" font-family="Times,serif" font-size="14.00">created_at :timestamp without time zone</text>
<text text-anchor="start" x="467" y="-561.3" font-family="Times,serif" font-size="14.00">updated_at :timestamp without time zone</text>
<text text-anchor="start" x="467" y="-547.3" font-family="Times,serif" font-size="14.00">name :character varying</text>
<text text-anchor="start" x="467" y="-533.3" font-family="Times,serif" font-size="14.00">audience_id :integer</text>
<text text-anchor="start" x="467" y="-519.3" font-family="Times,serif" font-size="14.00">notes :text</text>
</g>
<!-- Audience&#45;&gt;Tour -->
<g id="edge1" class="edge"><title>Audience&#45;&gt;Tour</title>
<path fill="none" stroke="#1e76e5" d="M463.676,-685.454C480.454,-669.272 499.44,-650.961 517.246,-633.787"/>
<ellipse fill="none" stroke="#1e76e5" cx="460.703" cy="-688.322" rx="4.00002" ry="4.00002"/>
<polygon fill="#1e76e5" stroke="#1e76e5" points="517.598,-633.448 527.919,-629.744 521.197,-629.976 524.795,-626.505 524.795,-626.505 524.795,-626.505 521.197,-629.976 521.671,-623.266 517.598,-633.448 517.598,-633.448"/>
</g>
<!-- Data -->
<g id="node16" class="node"><title>Data</title>
<ellipse fill="none" stroke="black" cx="413.862" cy="-569.5" rx="27" ry="18"/>
<text text-anchor="middle" x="413.862" y="-565.3" font-family="Times,serif" font-size="14.00">Data</text>
</g>
<!-- Audience&#45;&gt;Data -->
<g id="edge2" class="edge"><title>Audience&#45;&gt;Data</title>
<path fill="none" stroke="#8ed290" d="M413.862,-680.901C413.862,-653.18 413.862,-620.334 413.862,-597.717"/>
<polygon fill="#8ed290" stroke="#8ed290" points="413.862,-681.099 409.362,-691.099 413.862,-686.099 413.862,-691.099 413.862,-691.099 413.862,-691.099 413.862,-686.099 418.362,-691.099 413.862,-681.099 413.862,-681.099"/>
<polygon fill="#8ed290" stroke="#8ed290" points="413.862,-597.503 418.362,-587.503 413.862,-592.503 413.862,-587.503 413.862,-587.503 413.862,-587.503 413.862,-592.503 409.362,-587.503 413.862,-597.503 413.862,-597.503"/>
<text text-anchor="middle" x="425.521" y="-647.8" font-family="Times,serif" font-size="14.00">data</text>
</g>
<!-- Datum -->
<g id="node5" class="node"><title>Datum</title>
<path fill="none" stroke="black" d="M375,-836.5C375,-836.5 598.725,-836.5 598.725,-836.5 604.725,-836.5 610.725,-842.5 610.725,-848.5 610.725,-848.5 610.725,-938.5 610.725,-938.5 610.725,-944.5 604.725,-950.5 598.725,-950.5 598.725,-950.5 375,-950.5 375,-950.5 369,-950.5 363,-944.5 363,-938.5 363,-938.5 363,-848.5 363,-848.5 363,-842.5 369,-836.5 375,-836.5"/>
<text text-anchor="middle" x="486.862" y="-935.3" font-family="Times,serif" font-size="14.00">Datum</text>
<polyline fill="none" stroke="black" points="363,-928.5 610.725,-928.5 "/>
<text text-anchor="start" x="371" y="-913.3" font-family="Times,serif" font-size="14.00">id :integer</text>
<text text-anchor="start" x="371" y="-899.3" font-family="Times,serif" font-size="14.00">title :character varying</text>
<text text-anchor="start" x="371" y="-885.3" font-family="Times,serif" font-size="14.00">description :text</text>
<text text-anchor="start" x="371" y="-871.3" font-family="Times,serif" font-size="14.00">url :text</text>
<text text-anchor="start" x="371" y="-857.3" font-family="Times,serif" font-size="14.00">created_at :timestamp without time zone</text>
<text text-anchor="start" x="371" y="-843.3" font-family="Times,serif" font-size="14.00">updated_at :timestamp without time zone</text>
</g>
<!-- Datum&#45;&gt;Audience -->
<g id="edge5" class="edge"><title>Datum&#45;&gt;Audience</title>
<path fill="none" stroke="#277e8a" d="M456.437,-827.065C450.173,-813.592 443.662,-799.59 437.673,-786.709"/>
<polygon fill="#277e8a" stroke="#277e8a" points="456.498,-827.195 456.633,-838.16 458.606,-831.729 460.714,-836.263 460.714,-836.263 460.714,-836.263 458.606,-831.729 464.794,-834.366 456.498,-827.195 456.498,-827.195"/>
<polygon fill="#277e8a" stroke="#277e8a" points="437.631,-786.618 437.495,-775.653 435.523,-782.084 433.414,-777.551 433.414,-777.551 433.414,-777.551 435.523,-782.084 429.334,-779.448 437.631,-786.618 437.631,-786.618"/>
</g>
<!-- Datum&#45;&gt;DataAudience -->
<g id="edge6" class="edge"><title>Datum&#45;&gt;DataAudience</title>
<path fill="none" stroke="#5b1062" d="M363.216,-832.86C319.91,-811.849 281.679,-793.099 280.862,-792 246.335,-745.531 239.761,-678.378 240.323,-630.211"/>
<ellipse fill="none" stroke="#5b1062" cx="366.891" cy="-834.642" rx="4.00002" ry="4.00002"/>
<polygon fill="#5b1062" stroke="#5b1062" points="240.329,-629.928 245.053,-620.031 240.441,-624.929 240.554,-619.93 240.554,-619.93 240.554,-619.93 240.441,-624.929 236.055,-619.829 240.329,-629.928 240.329,-629.928"/>
</g>
<!-- Point -->
<g id="node7" class="node"><title>Point</title>
<path fill="none" stroke="black" d="M568,-677.5C568,-677.5 791.725,-677.5 791.725,-677.5 797.725,-677.5 803.725,-683.5 803.725,-689.5 803.725,-689.5 803.725,-779.5 803.725,-779.5 803.725,-785.5 797.725,-791.5 791.725,-791.5 791.725,-791.5 568,-791.5 568,-791.5 562,-791.5 556,-785.5 556,-779.5 556,-779.5 556,-689.5 556,-689.5 556,-683.5 562,-677.5 568,-677.5"/>
<text text-anchor="middle" x="679.862" y="-776.3" font-family="Times,serif" font-size="14.00">Point</text>
<polyline fill="none" stroke="black" points="556,-769.5 803.725,-769.5 "/>
<text text-anchor="start" x="564" y="-754.3" font-family="Times,serif" font-size="14.00">id :integer</text>
<text text-anchor="start" x="564" y="-740.3" font-family="Times,serif" font-size="14.00">name :character varying</text>
<text text-anchor="start" x="564" y="-726.3" font-family="Times,serif" font-size="14.00">created_at :timestamp without time zone</text>
<text text-anchor="start" x="564" y="-712.3" font-family="Times,serif" font-size="14.00">updated_at :timestamp without time zone</text>
<text text-anchor="start" x="564" y="-698.3" font-family="Times,serif" font-size="14.00">url :text</text>
<text text-anchor="start" x="564" y="-684.3" font-family="Times,serif" font-size="14.00">description :text</text>
</g>
<!-- Datum&#45;&gt;Point -->
<g id="edge4" class="edge"><title>Datum&#45;&gt;Point</title>
<path fill="none" stroke="#28aa4b" d="M563.759,-829.947C576.601,-819.5 589.928,-808.659 602.775,-798.208"/>
<polygon fill="#28aa4b" stroke="#28aa4b" points="563.48,-830.174 552.883,-832.993 559.601,-833.329 555.722,-836.484 555.722,-836.484 555.722,-836.484 559.601,-833.329 558.562,-839.975 563.48,-830.174 563.48,-830.174"/>
<polygon fill="#28aa4b" stroke="#28aa4b" points="602.946,-798.069 613.544,-795.249 606.825,-794.914 610.704,-791.758 610.704,-791.758 610.704,-791.758 606.825,-794.914 607.864,-788.267 602.946,-798.069 602.946,-798.069"/>
</g>
<!-- PointDatum -->
<g id="node8" class="node"><title>PointDatum</title>
<path fill="none" stroke="black" d="M737,-512.5C737,-512.5 960.725,-512.5 960.725,-512.5 966.725,-512.5 972.725,-518.5 972.725,-524.5 972.725,-524.5 972.725,-614.5 972.725,-614.5 972.725,-620.5 966.725,-626.5 960.725,-626.5 960.725,-626.5 737,-626.5 737,-626.5 731,-626.5 725,-620.5 725,-614.5 725,-614.5 725,-524.5 725,-524.5 725,-518.5 731,-512.5 737,-512.5"/>
<text text-anchor="middle" x="848.862" y="-611.3" font-family="Times,serif" font-size="14.00">PointDatum</text>
<polyline fill="none" stroke="black" points="725,-604.5 972.725,-604.5 "/>
<text text-anchor="start" x="733" y="-589.3" font-family="Times,serif" font-size="14.00">id :integer</text>
<text text-anchor="start" x="733" y="-575.3" font-family="Times,serif" font-size="14.00">point_id :integer</text>
<text text-anchor="start" x="733" y="-561.3" font-family="Times,serif" font-size="14.00">datum_id :integer</text>
<text text-anchor="start" x="733" y="-547.3" font-family="Times,serif" font-size="14.00">rank :integer</text>
<text text-anchor="start" x="733" y="-533.3" font-family="Times,serif" font-size="14.00">created_at :timestamp without time zone</text>
<text text-anchor="start" x="733" y="-519.3" font-family="Times,serif" font-size="14.00">updated_at :timestamp without time zone</text>
</g>
<!-- Datum&#45;&gt;PointDatum -->
<g id="edge7" class="edge"><title>Datum&#45;&gt;PointDatum</title>
<path fill="none" stroke="#809041" d="M607.006,-833.489C611.314,-831.901 615.608,-830.398 619.862,-829 702.839,-801.739 751.984,-854.626 812.862,-792 852.159,-751.575 858.533,-686.078 856.647,-636.77"/>
<ellipse fill="none" stroke="#809041" cx="602.98" cy="-835.016" rx="4.00001" ry="4.00001"/>
<polygon fill="#809041" stroke="#809041" points="856.634,-636.495 860.623,-626.281 856.381,-631.502 856.129,-626.508 856.129,-626.508 856.129,-626.508 856.381,-631.502 851.634,-626.735 856.634,-636.495 856.634,-636.495"/>
</g>
<!-- Feedback -->
<g id="node6" class="node"><title>Feedback</title>
<path fill="none" stroke="black" d="M12,-346.5C12,-346.5 235.725,-346.5 235.725,-346.5 241.725,-346.5 247.725,-352.5 247.725,-358.5 247.725,-358.5 247.725,-448.5 247.725,-448.5 247.725,-454.5 241.725,-460.5 235.725,-460.5 235.725,-460.5 12,-460.5 12,-460.5 6,-460.5 0,-454.5 0,-448.5 0,-448.5 0,-358.5 0,-358.5 0,-352.5 6,-346.5 12,-346.5"/>
<text text-anchor="middle" x="123.862" y="-445.3" font-family="Times,serif" font-size="14.00">Feedback</text>
<polyline fill="none" stroke="black" points="0,-438.5 247.725,-438.5 "/>
<text text-anchor="start" x="8" y="-423.3" font-family="Times,serif" font-size="14.00">id :integer</text>
<text text-anchor="start" x="8" y="-409.3" font-family="Times,serif" font-size="14.00">created_at :timestamp without time zone</text>
<text text-anchor="start" x="8" y="-395.3" font-family="Times,serif" font-size="14.00">updated_at :timestamp without time zone</text>
<text text-anchor="start" x="8" y="-381.3" font-family="Times,serif" font-size="14.00">tour_id :integer</text>
<text text-anchor="start" x="8" y="-367.3" font-family="Times,serif" font-size="14.00">rating :integer</text>
<text text-anchor="start" x="8" y="-353.3" font-family="Times,serif" font-size="14.00">comment :text</text>
</g>
<!-- Point&#45;&gt;PointDatum -->
<g id="edge8" class="edge"><title>Point&#45;&gt;PointDatum</title>
<path fill="none" stroke="#b56264" d="M744.057,-671.584C756.841,-659.254 770.283,-646.289 783.118,-633.91"/>
<ellipse fill="none" stroke="#b56264" cx="740.902" cy="-674.628" rx="4.00002" ry="4.00002"/>
<polygon fill="#b56264" stroke="#b56264" points="783.397,-633.641 793.719,-629.938 786.996,-630.17 790.595,-626.699 790.595,-626.699 790.595,-626.699 786.996,-630.17 787.471,-623.46 783.397,-633.641 783.397,-633.641"/>
</g>
<!-- Point&#45;&gt;Tour -->
<g id="edge9" class="edge"><title>Point&#45;&gt;Tour</title>
<path fill="none" stroke="#a4168e" d="M641.145,-668.438C634.658,-657.537 627.927,-646.227 621.443,-635.332"/>
<polygon fill="#a4168e" stroke="#a4168e" points="641.366,-668.811 642.613,-679.706 643.923,-673.108 646.48,-677.405 646.48,-677.405 646.48,-677.405 643.923,-673.108 650.347,-675.103 641.366,-668.811 641.366,-668.811"/>
<polygon fill="#a4168e" stroke="#a4168e" points="621.42,-635.292 620.173,-624.397 618.863,-630.995 616.306,-626.699 616.306,-626.699 616.306,-626.699 618.863,-630.995 612.439,-629 621.42,-635.292 621.42,-635.292"/>
</g>
<!-- Question -->
<g id="node9" class="node"><title>Question</title>
<path fill="none" stroke="black" d="M278,-152.5C278,-152.5 501.725,-152.5 501.725,-152.5 507.725,-152.5 513.725,-158.5 513.725,-164.5 513.725,-164.5 513.725,-282.5 513.725,-282.5 513.725,-288.5 507.725,-294.5 501.725,-294.5 501.725,-294.5 278,-294.5 278,-294.5 272,-294.5 266,-288.5 266,-282.5 266,-282.5 266,-164.5 266,-164.5 266,-158.5 272,-152.5 278,-152.5"/>
<text text-anchor="middle" x="389.862" y="-279.3" font-family="Times,serif" font-size="14.00">Question</text>
<polyline fill="none" stroke="black" points="266,-272.5 513.725,-272.5 "/>
<text text-anchor="start" x="274" y="-257.3" font-family="Times,serif" font-size="14.00">id :integer</text>
<text text-anchor="start" x="274" y="-243.3" font-family="Times,serif" font-size="14.00">rank :integer</text>
<text text-anchor="start" x="274" y="-229.3" font-family="Times,serif" font-size="14.00">description :text</text>
<text text-anchor="start" x="274" y="-215.3" font-family="Times,serif" font-size="14.00">correctly_answered :integer</text>
<text text-anchor="start" x="274" y="-201.3" font-family="Times,serif" font-size="14.00">wrongly_answered :integer</text>
<text text-anchor="start" x="274" y="-187.3" font-family="Times,serif" font-size="14.00">created_at :timestamp without time zone</text>
<text text-anchor="start" x="274" y="-173.3" font-family="Times,serif" font-size="14.00">updated_at :timestamp without time zone</text>
<text text-anchor="start" x="274" y="-159.3" font-family="Times,serif" font-size="14.00">quiz_id :integer</text>
</g>
<!-- Question&#45;&gt;Answer -->
<g id="edge10" class="edge"><title>Question&#45;&gt;Answer</title>
<path fill="none" stroke="#4bdc1d" d="M389.862,-144.445C389.862,-137.852 389.862,-131.225 389.862,-124.735"/>
<ellipse fill="none" stroke="#4bdc1d" cx="389.862" cy="-148.474" rx="4" ry="4"/>
<polygon fill="#4bdc1d" stroke="#4bdc1d" points="389.862,-124.673 394.362,-114.673 389.862,-119.673 389.862,-114.673 389.862,-114.673 389.862,-114.673 389.862,-119.673 385.362,-114.673 389.862,-124.673 389.862,-124.673"/>
</g>
<!-- Quiz -->
<g id="node10" class="node"><title>Quiz</title>
<path fill="none" stroke="black" d="M278,-360.5C278,-360.5 501.725,-360.5 501.725,-360.5 507.725,-360.5 513.725,-366.5 513.725,-372.5 513.725,-372.5 513.725,-434.5 513.725,-434.5 513.725,-440.5 507.725,-446.5 501.725,-446.5 501.725,-446.5 278,-446.5 278,-446.5 272,-446.5 266,-440.5 266,-434.5 266,-434.5 266,-372.5 266,-372.5 266,-366.5 272,-360.5 278,-360.5"/>
<text text-anchor="middle" x="389.862" y="-431.3" font-family="Times,serif" font-size="14.00">Quiz</text>
<polyline fill="none" stroke="black" points="266,-424.5 513.725,-424.5 "/>
<text text-anchor="start" x="274" y="-409.3" font-family="Times,serif" font-size="14.00">id :integer</text>
<text text-anchor="start" x="274" y="-395.3" font-family="Times,serif" font-size="14.00">name :character varying</text>
<text text-anchor="start" x="274" y="-381.3" font-family="Times,serif" font-size="14.00">created_at :timestamp without time zone</text>
<text text-anchor="start" x="274" y="-367.3" font-family="Times,serif" font-size="14.00">updated_at :timestamp without time zone</text>
</g>
<!-- Quiz&#45;&gt;Question -->
<g id="edge11" class="edge"><title>Quiz&#45;&gt;Question</title>
<path fill="none" stroke="#579539" d="M389.862,-352.282C389.862,-337.444 389.862,-320.819 389.862,-304.593"/>
<ellipse fill="none" stroke="#579539" cx="389.862" cy="-356.316" rx="4" ry="4"/>
<polygon fill="#579539" stroke="#579539" points="389.862,-304.561 394.362,-294.561 389.862,-299.561 389.862,-294.561 389.862,-294.561 389.862,-294.561 389.862,-299.561 385.362,-294.561 389.862,-304.561 389.862,-304.561"/>
</g>
<!-- Tour&#45;&gt;Feedback -->
<g id="edge14" class="edge"><title>Tour&#45;&gt;Feedback</title>
<path fill="none" stroke="#7d345e" d="M451.27,-512.431C450.8,-512.287 450.331,-512.143 449.862,-512 366.31,-486.56 339.248,-503.996 256.862,-475 248.354,-472.005 239.722,-468.537 231.154,-464.776"/>
<ellipse fill="none" stroke="#7d345e" cx="455.114" cy="-513.656" rx="4.00001" ry="4.00001"/>
<polygon fill="#7d345e" stroke="#7d345e" points="231.005,-464.709 223.746,-456.489 226.448,-462.649 221.892,-460.59 221.892,-460.59 221.892,-460.59 226.448,-462.649 220.039,-464.69 231.005,-464.709 231.005,-464.709"/>
</g>
<!-- Tour&#45;&gt;Quiz -->
<g id="edge15" class="edge"><title>Tour&#45;&gt;Quiz</title>
<path fill="none" stroke="#00abe3" d="M510.424,-506.947C488.985,-488.729 465.853,-469.073 445.641,-451.897"/>
<ellipse fill="none" stroke="#00abe3" cx="513.665" cy="-509.7" rx="4.00002" ry="4.00002"/>
<ellipse fill="#00abe3" stroke="#00abe3" cx="442.515" cy="-449.241" rx="4.00002" ry="4.00002"/>
</g>
<!-- TourPoint -->
<g id="node12" class="node"><title>TourPoint</title>
<path fill="none" stroke="black" d="M544,-346.5C544,-346.5 767.725,-346.5 767.725,-346.5 773.725,-346.5 779.725,-352.5 779.725,-358.5 779.725,-358.5 779.725,-448.5 779.725,-448.5 779.725,-454.5 773.725,-460.5 767.725,-460.5 767.725,-460.5 544,-460.5 544,-460.5 538,-460.5 532,-454.5 532,-448.5 532,-448.5 532,-358.5 532,-358.5 532,-352.5 538,-346.5 544,-346.5"/>
<text text-anchor="middle" x="655.862" y="-445.3" font-family="Times,serif" font-size="14.00">TourPoint</text>
<polyline fill="none" stroke="black" points="532,-438.5 779.725,-438.5 "/>
<text text-anchor="start" x="540" y="-423.3" font-family="Times,serif" font-size="14.00">id :integer</text>
<text text-anchor="start" x="540" y="-409.3" font-family="Times,serif" font-size="14.00">tour_id :integer</text>
<text text-anchor="start" x="540" y="-395.3" font-family="Times,serif" font-size="14.00">point_id :integer</text>
<text text-anchor="start" x="540" y="-381.3" font-family="Times,serif" font-size="14.00">rank :integer</text>
<text text-anchor="start" x="540" y="-367.3" font-family="Times,serif" font-size="14.00">created_at :timestamp without time zone</text>
<text text-anchor="start" x="540" y="-353.3" font-family="Times,serif" font-size="14.00">updated_at :timestamp without time zone</text>
</g>
<!-- Tour&#45;&gt;TourPoint -->
<g id="edge12" class="edge"><title>Tour&#45;&gt;TourPoint</title>
<path fill="none" stroke="#fb7ecd" d="M611.313,-504.583C616.341,-493.288 621.583,-481.512 626.631,-470.17"/>
<ellipse fill="none" stroke="#fb7ecd" cx="609.611" cy="-508.406" rx="4.00002" ry="4.00002"/>
<polygon fill="#fb7ecd" stroke="#fb7ecd" points="626.751,-469.901 634.928,-462.596 628.784,-465.334 630.817,-460.766 630.817,-460.766 630.817,-460.766 628.784,-465.334 626.706,-458.936 626.751,-469.901 626.751,-469.901"/>
</g>
<!-- TourSession -->
<g id="node14" class="node"><title>TourSession</title>
<path fill="none" stroke="black" d="M810,-332.5C810,-332.5 1033.72,-332.5 1033.72,-332.5 1039.72,-332.5 1045.72,-338.5 1045.72,-344.5 1045.72,-344.5 1045.72,-462.5 1045.72,-462.5 1045.72,-468.5 1039.72,-474.5 1033.72,-474.5 1033.72,-474.5 810,-474.5 810,-474.5 804,-474.5 798,-468.5 798,-462.5 798,-462.5 798,-344.5 798,-344.5 798,-338.5 804,-332.5 810,-332.5"/>
<text text-anchor="middle" x="921.862" y="-459.3" font-family="Times,serif" font-size="14.00">TourSession</text>
<polyline fill="none" stroke="black" points="798,-452.5 1045.72,-452.5 "/>
<text text-anchor="start" x="806" y="-437.3" font-family="Times,serif" font-size="14.00">id :integer</text>
<text text-anchor="start" x="806" y="-423.3" font-family="Times,serif" font-size="14.00">tour_id :integer</text>
<text text-anchor="start" x="806" y="-409.3" font-family="Times,serif" font-size="14.00">start_date :date</text>
<text text-anchor="start" x="806" y="-395.3" font-family="Times,serif" font-size="14.00">duration :integer</text>
<text text-anchor="start" x="806" y="-381.3" font-family="Times,serif" font-size="14.00">passphrase :character varying</text>
<text text-anchor="start" x="806" y="-367.3" font-family="Times,serif" font-size="14.00">created_at :timestamp without time zone</text>
<text text-anchor="start" x="806" y="-353.3" font-family="Times,serif" font-size="14.00">updated_at :timestamp without time zone</text>
<text text-anchor="start" x="806" y="-339.3" font-family="Times,serif" font-size="14.00">name :character varying</text>
</g>
<!-- Tour&#45;&gt;TourSession -->
<g id="edge13" class="edge"><title>Tour&#45;&gt;TourSession</title>
<path fill="none" stroke="#5e362f" d="M714.161,-510.361C736.759,-499.983 760.054,-489.052 788.68,-475.049"/>
<ellipse fill="none" stroke="#5e362f" cx="710.441" cy="-512.065" rx="4.00002" ry="4.00002"/>
<polygon fill="#5e362f" stroke="#5e362f" points="788.763,-475.008 799.723,-474.641 793.252,-472.805 797.74,-470.602 797.74,-470.602 797.74,-470.602 793.252,-472.805 795.757,-466.562 788.763,-475.008 788.763,-475.008"/>
</g>
<!-- TourQuiz -->
<g id="node13" class="node"><title>TourQuiz</title>
<path fill="none" stroke="black" d="M641,-843.5C641,-843.5 864.725,-843.5 864.725,-843.5 870.725,-843.5 876.725,-849.5 876.725,-855.5 876.725,-855.5 876.725,-931.5 876.725,-931.5 876.725,-937.5 870.725,-943.5 864.725,-943.5 864.725,-943.5 641,-943.5 641,-943.5 635,-943.5 629,-937.5 629,-931.5 629,-931.5 629,-855.5 629,-855.5 629,-849.5 635,-843.5 641,-843.5"/>
<text text-anchor="middle" x="752.862" y="-928.3" font-family="Times,serif" font-size="14.00">TourQuiz</text>
<polyline fill="none" stroke="black" points="629,-921.5 876.725,-921.5 "/>
<text text-anchor="start" x="637" y="-906.3" font-family="Times,serif" font-size="14.00">id :integer</text>
<text text-anchor="start" x="637" y="-892.3" font-family="Times,serif" font-size="14.00">tour_id :integer</text>
<text text-anchor="start" x="637" y="-878.3" font-family="Times,serif" font-size="14.00">quiz_id :integer</text>
<text text-anchor="start" x="637" y="-864.3" font-family="Times,serif" font-size="14.00">created_at :timestamp without time zone</text>
<text text-anchor="start" x="637" y="-850.3" font-family="Times,serif" font-size="14.00">updated_at :timestamp without time zone</text>
</g>
<!-- User -->
<g id="node15" class="node"><title>User</title>
<path fill="none" stroke="black" d="M907,-829.5C907,-829.5 1130.72,-829.5 1130.72,-829.5 1136.72,-829.5 1142.72,-835.5 1142.72,-841.5 1142.72,-841.5 1142.72,-945.5 1142.72,-945.5 1142.72,-951.5 1136.72,-957.5 1130.72,-957.5 1130.72,-957.5 907,-957.5 907,-957.5 901,-957.5 895,-951.5 895,-945.5 895,-945.5 895,-841.5 895,-841.5 895,-835.5 901,-829.5 907,-829.5"/>
<text text-anchor="middle" x="1018.86" y="-942.3" font-family="Times,serif" font-size="14.00">User</text>
<polyline fill="none" stroke="black" points="895,-935.5 1142.72,-935.5 "/>
<text text-anchor="start" x="903" y="-920.3" font-family="Times,serif" font-size="14.00">id :integer</text>
<text text-anchor="start" x="903" y="-906.3" font-family="Times,serif" font-size="14.00">email :character varying</text>
<text text-anchor="start" x="903" y="-892.3" font-family="Times,serif" font-size="14.00">password_digest :character varying</text>
<text text-anchor="start" x="903" y="-878.3" font-family="Times,serif" font-size="14.00">created_at :timestamp without time zone</text>
<text text-anchor="start" x="903" y="-864.3" font-family="Times,serif" font-size="14.00">updated_at :timestamp without time zone</text>
<text text-anchor="start" x="903" y="-850.3" font-family="Times,serif" font-size="14.00">activated :boolean</text>
<text text-anchor="start" x="903" y="-836.3" font-family="Times,serif" font-size="14.00">temporarypassword :character varying</text>
</g>
</g>
</svg>
